<svg xmlns="http://www.w3.org/2000/svg" width="1254" height="1254" viewBox="0 0 1254 1254">
  <defs>
    <linearGradient id="baseWhite" x1="0.18" y1="0.12" x2="0.86" y2="0.92">
      <stop offset="0" stop-color="#fafafa"/>
      <stop offset="0.7" stop-color="#f1f1f1"/>
      <stop offset="1" stop-color="#e8e8e8"/>
    </linearGradient>
    <linearGradient id="redGrad" x1="0.12" y1="0.2" x2="0.88" y2="0.86">
      <stop offset="0" stop-color="#d10000"/>
      <stop offset="0.55" stop-color="#f5151b"/>
      <stop offset="1" stop-color="#d10000"/>
    </linearGradient>
  </defs>
  <path d="M 186.0,437.0 L 186.0,444.0 L 175.0,457.0 L 174.0,466.0 L 167.0,476.0 L 151.0,529.0 L 146.0,606.0 L 152.0,618.0 L 159.0,613.0 L 159.0,602.0 L 163.0,601.0 L 162.0,591.0 L 166.0,582.0 L 166.0,575.0 L 169.0,573.0 L 171.0,561.0 L 177.0,554.0 L 178.0,546.0 L 198.0,511.0 L 203.0,507.0 L 203.0,504.0 L 208.0,500.0 L 212.0,492.0 L 247.0,457.0 L 266.0,443.0 L 272.0,441.0 L 273.0,438.0 L 306.0,421.0 L 313.0,421.0 L 317.0,417.0 L 323.0,417.0 L 325.0,414.0 L 374.0,402.0 L 396.0,401.0 L 397.0,398.0 L 422.0,398.0 L 423.0,401.0 L 433.0,403.0 L 463.0,404.0 L 472.0,410.0 L 485.0,410.0 L 496.0,415.0 L 509.0,416.0 L 517.0,424.0 L 533.0,426.0 L 540.0,431.0 L 544.0,431.0 L 546.0,437.0 L 558.0,438.0 L 569.0,449.0 L 576.0,450.0 L 581.0,455.0 L 588.0,455.0 L 624.0,485.0 L 631.0,492.0 L 633.0,498.0 L 639.0,499.0 L 651.0,513.0 L 655.0,514.0 L 662.0,521.0 L 663.0,528.0 L 666.0,531.0 L 671.0,531.0 L 678.0,538.0 L 677.0,552.0 L 691.0,557.0 L 693.0,560.0 L 692.0,570.0 L 699.0,570.0 L 702.0,577.0 L 709.0,578.0 L 712.0,585.0 L 721.0,592.0 L 724.0,605.0 L 729.0,605.0 L 735.0,611.0 L 736.0,621.0 L 750.0,628.0 L 751.0,638.0 L 755.0,638.0 L 760.0,642.0 L 775.0,665.0 L 815.0,739.0 L 842.0,806.0 L 859.0,866.0 L 860.0,881.0 L 864.0,891.0 L 865.0,937.0 L 868.0,948.0 L 867.0,965.0 L 871.0,971.0 L 869.0,1010.0 L 871.0,1017.0 L 874.0,1017.0 L 894.0,1003.0 L 934.0,968.0 L 964.0,935.0 L 970.0,931.0 L 970.0,928.0 L 993.0,900.0 L 1020.0,861.0 L 1045.0,818.0 L 1061.0,786.0 L 1082.0,732.0 L 1090.0,705.0 L 1098.0,665.0 L 1101.0,637.0 L 1100.0,595.0 L 1086.0,522.0 L 1081.0,510.0 L 1078.0,508.0 L 1077.0,501.0 L 1069.0,489.0 L 1069.0,480.0 L 1063.0,478.0 L 1058.0,470.0 L 1058.0,462.0 L 1054.0,462.0 L 1048.0,456.0 L 1044.0,456.0 L 1028.0,438.0 L 1028.0,435.0 L 1025.0,435.0 L 1013.0,420.0 L 1009.0,419.0 L 968.0,387.0 L 965.0,381.0 L 959.0,380.0 L 952.0,372.0 L 940.0,370.0 L 903.0,350.0 L 861.0,333.0 L 857.0,329.0 L 851.0,329.0 L 811.0,316.0 L 810.0,313.0 L 799.0,313.0 L 763.0,303.0 L 722.0,295.0 L 648.0,286.0 L 539.0,286.0 L 455.0,297.0 L 403.0,309.0 L 362.0,322.0 L 325.0,337.0 L 270.0,367.0 L 265.0,367.0 L 223.0,397.0 L 206.0,417.0 L 200.0,421.0 L 193.0,433.0 Z" fill="url(#baseWhite)"/>
  <path d="M 804.0,322.0 L 748.0,323.0 L 708.0,326.0 L 658.0,333.0 L 616.0,342.0 L 582.0,352.0 L 547.0,366.0 L 523.0,379.0 L 504.0,394.0 L 498.0,394.0 L 465.0,377.0 L 430.0,364.0 L 407.0,358.0 L 376.0,353.0 L 330.0,353.0 L 299.0,359.0 L 276.0,367.0 L 255.0,378.0 L 225.0,401.0 L 202.0,426.0 L 181.0,458.0 L 166.0,492.0 L 155.0,534.0 L 152.0,560.0 L 152.0,606.0 L 155.0,607.0 L 159.0,586.0 L 166.0,565.0 L 178.0,538.0 L 192.0,514.0 L 212.0,487.0 L 233.0,465.0 L 252.0,449.0 L 277.0,432.0 L 302.0,419.0 L 340.0,405.0 L 374.0,398.0 L 392.0,396.0 L 440.0,397.0 L 471.0,402.0 L 510.0,413.0 L 537.0,424.0 L 559.0,435.0 L 581.0,450.0 L 584.0,450.0 L 589.0,436.0 L 603.0,417.0 L 629.0,392.0 L 660.0,371.0 L 689.0,356.0 L 724.0,342.0 L 770.0,329.0 L 804.0,324.0 Z" fill="url(#redGrad)"/><path d="M 955.0,379.0 L 946.0,375.0 L 945.0,380.0 L 939.0,387.0 L 916.0,402.0 L 813.0,446.0 L 766.0,469.0 L 729.0,492.0 L 709.0,508.0 L 695.0,522.0 L 684.0,537.0 L 683.0,543.0 L 717.0,582.0 L 749.0,626.0 L 751.0,626.0 L 751.0,619.0 L 756.0,601.0 L 769.0,574.0 L 799.0,532.0 L 852.0,480.0 L 928.0,420.0 L 950.0,396.0 L 955.0,385.0 Z" fill="url(#redGrad)"/><path d="M 1051.0,467.0 L 1049.0,467.0 L 1055.0,498.0 L 1055.0,529.0 L 1047.0,569.0 L 1035.0,603.0 L 1015.0,645.0 L 990.0,688.0 L 904.0,821.0 L 882.0,863.0 L 874.0,884.0 L 869.0,907.0 L 869.0,928.0 L 873.0,964.0 L 873.0,1010.0 L 875.0,1010.0 L 878.0,998.0 L 892.0,965.0 L 916.0,920.0 L 944.0,875.0 L 1000.0,792.0 L 1037.0,731.0 L 1063.0,678.0 L 1076.0,642.0 L 1084.0,609.0 L 1087.0,585.0 L 1086.0,545.0 L 1082.0,524.0 L 1065.0,488.0 Z" fill="url(#redGrad)"/>
</svg>