<svg xmlns="http://www.w3.org/2000/svg" viewBox="0 0 100 100">
  <defs>
    <clipPath id="wc">
      <path d="M 7,28 C 18,7 82,7 93,28 C 82,25 18,25 7,28 Z"/>
    </clipPath>
  </defs>
  <path d="M 7,28 C 18,7 82,7 93,28 C 82,25 18,25 7,28 Z" fill="#FFFFFF"/>
  <g clip-path="url(#wc)">
    <rect x="7"     y="0" width="12.29" height="35" fill="#D42B2B"/>
    <rect x="31.57" y="0" width="12.29" height="35" fill="#D42B2B"/>
    <rect x="56.14" y="0" width="12.29" height="35" fill="#D42B2B"/>
    <rect x="80.71" y="0" width="12.29" height="35" fill="#D42B2B"/>
  </g>
  <g clip-path="url(#wc)" stroke="#1A1A1A" stroke-width="0.45" fill="none">
    <line x1="19.29" y1="0" x2="19.29" y2="35"/>
    <line x1="31.57" y1="0" x2="31.57" y2="35"/>
    <line x1="43.86" y1="0" x2="43.86" y2="35"/>
    <line x1="56.14" y1="0" x2="56.14" y2="35"/>
    <line x1="68.43" y1="0" x2="68.43" y2="35"/>
    <line x1="80.71" y1="0" x2="80.71" y2="35"/>
  </g>
  <path d="M 7,28 C 18,7 82,7 93,28 C 82,25 18,25 7,28 Z"
        fill="none" stroke="#1A1A1A" stroke-width="1.1" stroke-linejoin="round"/>
  <g stroke="#4A4A4A" stroke-width="0.65" fill="none">
    <line x1="12"  y1="27.2" x2="47"  y2="73"/>
    <line x1="19"  y1="26.5" x2="47.5" y2="73"/>
    <line x1="34"  y1="26.3" x2="48.5" y2="73"/>
    <line x1="50"  y1="25.8" x2="50"  y2="73"/>
    <line x1="66"  y1="26.3" x2="51.5" y2="73"/>
    <line x1="81"  y1="26.5" x2="52.5" y2="73"/>
    <line x1="88"  y1="27.2" x2="53"  y2="73"/>
  </g>
  <circle cx="50" cy="68.5" r="2.6" fill="#1A1A1A"/>
  <ellipse cx="50" cy="79" rx="6.5" ry="5" fill="#1A1A1A"/>
</svg>
